<?xml version="1.0"?>
<svg xmlns="http://www.w3.org/2000/svg" width="316.098" height="72.965" viewBox="0 0 316.098 72.965">
  <g transform="translate(-98 -46)">
    <path d="M421.016,297.917v1.141a9.878,9.878,0,0,1-.061,1.081H400.376a4.986,4.986,0,0,0,.714,2.167,6.135,6.135,0,0,0,1.54,1.681,7.412,7.412,0,0,0,2.106,1.113,7.5,7.5,0,0,0,2.426.4,7.858,7.858,0,0,0,3.763-.828,7.411,7.411,0,0,0,2.505-2.137l6.5,4.1a13.136,13.136,0,0,1-5.271,4.475,17.452,17.452,0,0,1-7.612,1.568,18.114,18.114,0,0,1-6.04-1,14.671,14.671,0,0,1-4.992-2.907,13.469,13.469,0,0,1-3.363-4.7,15.752,15.752,0,0,1-1.225-6.384,15.982,15.982,0,0,1,1.2-6.3,14.222,14.222,0,0,1,3.252-4.788,14.458,14.458,0,0,1,4.843-3.05,16.593,16.593,0,0,1,6.045-1.084,15.309,15.309,0,0,1,5.758,1.055,12.6,12.6,0,0,1,4.5,3.048,14.066,14.066,0,0,1,2.932,4.845A18.6,18.6,0,0,1,421.016,297.917Zm-8.611-3.59a5.6,5.6,0,0,0-1.4-3.82,5.279,5.279,0,0,0-4.189-1.6,7.085,7.085,0,0,0-2.51.427,6.482,6.482,0,0,0-1.994,1.169,5.776,5.776,0,0,0-1.369,1.74,5.21,5.21,0,0,0-.57,2.08Z" transform="translate(-141.659 -212.621)" fill="#003145"/>
    <path d="M206.456,328.92a26.978,26.978,0,1,1,0-53.957Z" transform="translate(-81.477 -209.955)" fill="#003145"/>
    <path d="M217.745,249.451a26.978,26.978,0,1,1,0,53.957Z" transform="translate(-92.766 -203.451)" fill="#fff"/>
    <path d="M290.312,292.559a5.714,5.714,0,0,0-2.166-1.654,6.669,6.669,0,0,0-2.8-.626,5.909,5.909,0,0,0-2.677.6,6.476,6.476,0,0,0-2.05,1.6,7.465,7.465,0,0,0-1.341,2.308,7.961,7.961,0,0,0-.487,2.8,8.392,8.392,0,0,0,.459,2.792,6.747,6.747,0,0,0,1.337,2.308,6.381,6.381,0,0,0,2.111,1.568,6.468,6.468,0,0,0,2.765.571,7.735,7.735,0,0,0,2.821-.543,5.4,5.4,0,0,0,2.255-1.569l5.187,6.328a12.18,12.18,0,0,1-4.561,2.68,17.952,17.952,0,0,1-5.929.969,18.791,18.791,0,0,1-6.281-1.025,14.6,14.6,0,0,1-5.066-2.993,14.08,14.08,0,0,1-3.382-4.76,16.7,16.7,0,0,1,0-12.6,14.055,14.055,0,0,1,3.382-4.76,14.953,14.953,0,0,1,5.066-3.02,18.166,18.166,0,0,1,6.226-1.055,16.368,16.368,0,0,1,3.048.286,20.642,20.642,0,0,1,2.909.77,13.35,13.35,0,0,1,2.566,1.2,10.952,10.952,0,0,1,2.023,1.568Z" transform="translate(-106.985 -212.621)" fill="#003145"/>
    <path d="M329.406,308.112a8.887,8.887,0,0,1-3.906,3.333,12.724,12.724,0,0,1-5.386,1.17,12.559,12.559,0,0,1-5.7-1.255,13,13,0,0,1-4.245-3.333,14.664,14.664,0,0,1-2.654-4.818,17.908,17.908,0,0,1-.909-5.7,17.185,17.185,0,0,1,.937-5.671,14.763,14.763,0,0,1,2.682-4.76A12.485,12.485,0,0,1,320,282.629a10.818,10.818,0,0,1,5.3,1.2,11.761,11.761,0,0,1,3.363,2.624h.116v-3.137h9.348v28.5h-8.611v-3.7Zm-13.8-10.605a8.925,8.925,0,0,0,.427,2.709,6.989,6.989,0,0,0,1.285,2.366,6.463,6.463,0,0,0,2.106,1.652,6.392,6.392,0,0,0,2.909.629,6.258,6.258,0,0,0,2.849-.629,6.8,6.8,0,0,0,2.139-1.652,7.737,7.737,0,0,0,0-10.034,6.8,6.8,0,0,0-2.139-1.652,6.294,6.294,0,0,0-2.849-.629,6.428,6.428,0,0,0-2.909.629,6.678,6.678,0,0,0-2.106,1.624,6.748,6.748,0,0,0-1.285,2.308A8.658,8.658,0,0,0,315.609,297.507Z" transform="translate(-117.564 -212.669)" fill="#003145"/>
    <path d="M374.26,291.761a10.535,10.535,0,0,0-2.681-1.825,7.412,7.412,0,0,0-3.248-.74,5.7,5.7,0,0,0-2.422.513,1.8,1.8,0,0,0-1.113,1.767,1.758,1.758,0,0,0,1.225,1.71,26.459,26.459,0,0,0,3.962,1.141,21.163,21.163,0,0,1,3.22.969,11.291,11.291,0,0,1,2.936,1.652,7.909,7.909,0,0,1,2.111,2.51,7.338,7.338,0,0,1,.8,3.533,8.495,8.495,0,0,1-3.906,7.525,12.149,12.149,0,0,1-3.9,1.654,18.853,18.853,0,0,1-4.333.513,21.456,21.456,0,0,1-6.815-1.111,14.329,14.329,0,0,1-5.557-3.277l5.247-5.53a10.471,10.471,0,0,0,3.076,2.28,8.56,8.56,0,0,0,3.879.912,5.077,5.077,0,0,0,2.25-.54A1.946,1.946,0,0,0,370.1,303.5a2.05,2.05,0,0,0-1.369-1.937,24.549,24.549,0,0,0-4.277-1.311,22.372,22.372,0,0,1-2.964-.914,9.33,9.33,0,0,1-2.649-1.538,7.728,7.728,0,0,1-1.912-2.393,7.368,7.368,0,0,1-.737-3.422,8.284,8.284,0,0,1,1.081-4.36,9.2,9.2,0,0,1,2.793-2.937,12.482,12.482,0,0,1,3.79-1.681,16.425,16.425,0,0,1,4.133-.541,20.029,20.029,0,0,1,6.245,1,13.507,13.507,0,0,1,5.159,2.992Z" transform="translate(-131.215 -212.621)" fill="#003145"/>
    <path d="M515.68,297.46a15.359,15.359,0,0,1-1.253,6.3,14.111,14.111,0,0,1-3.419,4.788,15.676,15.676,0,0,1-5.015,3.05,17.637,17.637,0,0,1-12.174,0,15.186,15.186,0,0,1-5.015-3.05,14.316,14.316,0,0,1-3.392-4.788,15.291,15.291,0,0,1-1.257-6.3,15.089,15.089,0,0,1,1.257-6.269,14.108,14.108,0,0,1,3.392-4.733,14.723,14.723,0,0,1,5.015-2.964,18.572,18.572,0,0,1,12.174,0,15.18,15.18,0,0,1,5.015,2.964,13.909,13.909,0,0,1,3.419,4.733A15.155,15.155,0,0,1,515.68,297.46Zm-9,0a8.163,8.163,0,0,0-.455-2.679,7.144,7.144,0,0,0-1.313-2.308,6.652,6.652,0,0,0-2.111-1.624,7.032,7.032,0,0,0-5.813,0,6.324,6.324,0,0,0-2.078,1.624,7.016,7.016,0,0,0-1.257,2.308,8.614,8.614,0,0,0,0,5.358,7.341,7.341,0,0,0,1.285,2.367,6.284,6.284,0,0,0,2.106,1.681,7.041,7.041,0,0,0,5.818,0,6.284,6.284,0,0,0,2.107-1.681,7.355,7.355,0,0,0,1.285-2.367A8.635,8.635,0,0,0,506.675,297.46Z" transform="translate(-167.965 -212.621)" fill="#003145"/>
    <path d="M541.8,268.759a4.857,4.857,0,0,1-.427,2.023,5.12,5.12,0,0,1-2.853,2.707,5.534,5.534,0,0,1-2.078.4,5.25,5.25,0,0,1-3.823-1.51,5.037,5.037,0,0,1-1.136-5.586,4.66,4.66,0,0,1,1.136-1.626,6.259,6.259,0,0,1,1.712-1.111,5.159,5.159,0,0,1,2.111-.427,5.536,5.536,0,0,1,2.078.4,5.126,5.126,0,0,1,2.853,2.707A4.87,4.87,0,0,1,541.8,268.759Zm-10.034,37.453v-28.39h9.347v28.39Z" transform="translate(-181.558 -207.633)" fill="#003145"/>
    <path d="M569.752,311.817V296.31a12.9,12.9,0,0,0-.2-2.28,6.269,6.269,0,0,0-.659-1.909,3.4,3.4,0,0,0-1.28-1.311,4.085,4.085,0,0,0-2.083-.484,4.738,4.738,0,0,0-2.194.484,4.453,4.453,0,0,0-1.568,1.339,6,6,0,0,0-.938,1.967,8.318,8.318,0,0,0-.315,2.308v15.393h-9.408v-28.39h9.065v3.935h.115a9.427,9.427,0,0,1,1.341-1.8,8.071,8.071,0,0,1,1.935-1.512,12.13,12.13,0,0,1,2.427-1.026,9.592,9.592,0,0,1,2.793-.4,10.513,10.513,0,0,1,4.843,1.026,9.226,9.226,0,0,1,3.22,2.651,10.389,10.389,0,0,1,1.768,3.734,16.881,16.881,0,0,1,.542,4.219v17.557Z" transform="translate(-186.683 -212.68)" fill="#003145"/>
    <path d="M606.387,287.995v11.178a5.119,5.119,0,0,0,.77,3.088,3.244,3.244,0,0,0,2.765,1.031,9.588,9.588,0,0,0,1.452-.117,4.787,4.787,0,0,0,1.28-.353l.116,7.032a14.772,14.772,0,0,1-2.45.615,16.834,16.834,0,0,1-2.964.265,13.629,13.629,0,0,1-4.792-.734,7.411,7.411,0,0,1-3.1-2.115,8.4,8.4,0,0,1-1.683-3.291,16.362,16.362,0,0,1-.51-4.259v-12.34h-4.561v-7.149h4.5V273.17h9.181v7.675h6.666v7.149Z" transform="translate(-198.955 -210.448)" fill="#003145"/>
    <path d="M459.277,297.507a8.642,8.642,0,0,0-.427-2.679,7.01,7.01,0,0,0-1.252-2.308,6.308,6.308,0,0,0-4.992-2.252,6.294,6.294,0,0,0-2.849.629,6.8,6.8,0,0,0-2.138,1.652,7.593,7.593,0,0,0-1.368,2.338,7.676,7.676,0,0,0,0,5.359,7.593,7.593,0,0,0,1.368,2.338,6.8,6.8,0,0,0,2.138,1.652,6.258,6.258,0,0,0,2.849.629,6.391,6.391,0,0,0,2.909-.629,6.2,6.2,0,0,0,2.083-1.652,7.266,7.266,0,0,0,1.252-2.366A8.909,8.909,0,0,0,459.277,297.507Zm-22.519,26.074V283.427h8.893V286.9h.171a11.586,11.586,0,0,1,3.624-2.992,11,11,0,0,1,5.441-1.283,12.8,12.8,0,0,1,5.586,1.2,12.6,12.6,0,0,1,4.25,3.25,14.84,14.84,0,0,1,2.677,4.76,17.171,17.171,0,0,1,.942,5.671,17.909,17.909,0,0,1-.914,5.7,14.657,14.657,0,0,1-2.649,4.818,13.107,13.107,0,0,1-4.245,3.333,12.589,12.589,0,0,1-5.7,1.255,11.907,11.907,0,0,1-4.96-1.055,8.862,8.862,0,0,1-3.651-2.879H446.1v5.561A9.34,9.34,0,0,1,436.758,323.581Z" transform="translate(-154.51 -212.217)" fill="#003145"/>
  </g>
</svg>
